<svg xmlns="http://www.w3.org/2000/svg" viewBox="0 0 300 78"><path d="M47.1 54.4c0 13-23.5 23.5-23.5 23.5S.4 67.7 0 55.1V27.7h.2c2.1 11.9 23.4 21.2 23.4 21.2s20.8-9.3 23.3-21.2h.2v26.7zm79.4 2.5h10.6l-1.4 4.9h-9.1V73h-5.4V44.3H138v4.9h-11.5v7.7zm-25.9 5.5h6.8l-3.4-8.6-3.4 8.6zm8.6 4.9H98.7L96.5 73h-5.7l11.8-28.7h2.8L117.6 73h-6.1l-2.3-5.7zm-35.6-3.9c0 1.5.7 2.8 1.8 3.7 1.2.9 2.6 1.3 4 1.3 1.1 0 2.2-.3 3.2-.8.8-.5 1.3-1.3 1.3-2.3 0-.9-.4-1.8-1.1-2.3-.8-.7-1.8-1.2-2.8-1.6-1.1-.4-2.3-.8-3.6-1.3-1.2-.5-2.4-1-3.6-1.6-1.1-.6-2.1-1.5-2.8-2.5-.8-1.2-1.2-2.5-1.1-3.9-.1-2.3 1-4.6 2.9-6 4-2.8 9.4-2.9 13.5-.2 1.8 1.2 3 3.2 3.3 5.4l-5.4.7c-.1-1-.6-1.9-1.5-2.4-1-.6-2.1-.9-3.2-.8-1 0-2.1.2-2.9.7-.8.4-1.2 1.2-1.2 2.1.1 1 .7 1.9 1.6 2.3 1.2.7 2.4 1.3 3.8 1.7 1.5.5 2.9 1.1 4.4 1.7 1.5.7 2.8 1.7 3.8 2.9 1.1 1.3 1.6 3 1.6 4.7.1 2.4-1 4.7-2.9 6.2-2 1.5-4.5 2.3-7 2.2-2.7 0-5.4-.8-7.6-2.4-2.2-1.6-3.5-4.1-3.7-6.7l5.2-.8zm224.9-29.2h-6.8V4.8h5.4v24.6h2.9l-1.5 4.8zM279 29c.9-.8 1.4-1.9 1.5-3.1h-4.2c-2 0-3 .7-3 2.1 0 1.3.8 2 2.5 2 1.1.1 2.3-.2 3.2-1zm-9-5.2c1.5-1.3 3.6-1.9 6.5-1.9h4v-.7c.1-.9-.3-1.8-.9-2.4-.7-.6-1.5-.9-2.4-.8-.8 0-1.6.2-2.3.8-.6.5-1 1.4-.9 2.2l-5.4-.9c.3-2 1.3-3.7 2.9-4.9 1.6-1.2 3.6-1.8 5.7-1.7 2.2 0 4.4.7 6.1 2 1.7 1.4 2.7 3.5 2.6 5.7v8.2h2.7l-1.5 4.9h-5.3l-1.2-2.5h-.3c-1.6 1.9-4 2.9-6.5 2.9-1.6.1-3.2-.5-4.3-1.6-1.1-1.1-1.7-2.7-1.7-4.3 0-2 .8-3.8 2.2-5zm-15-10v-5h5.4v4.9h5.3l-1.4 4.9h-3.8v10.6h4.8l-1.5 4.9H255V18.7h-3.7l1.5-4.9h2.2zm-12.1-8.1c.6-.7 1.5-1 2.4-1 .9 0 1.8.4 2.4 1 .7.6 1 1.5 1 2.5 0 .9-.4 1.8-1 2.4-.6.7-1.5 1-2.4 1-.9 0-1.8-.4-2.4-1-.6-.6-1-1.5-1-2.4 0-1 .4-1.9 1-2.5zm-1.6 8.1h6.8v20.5h-5.4V18.7h-2.9l1.5-4.9zm-18 14.4c2 2 5.3 2 7.3 0 1.1-1.1 1.6-2.6 1.5-4.2.1-1.5-.5-3.1-1.5-4.2-2-2-5.3-2-7.3 0-1.1 1.1-1.6 2.6-1.5 4.2-.1 1.6.5 3.1 1.5 4.2zm-1.2 14.2h-5.4V13.8h5.4v2.4h.3c1.6-1.8 3.9-2.8 6.3-2.7 2.4 0 4.7 1 6.3 2.8 1.9 2.1 2.8 4.9 2.7 7.8 0 3.3-.9 5.9-2.7 7.8-1.6 1.8-3.9 2.8-6.3 2.8s-4.7-1-6.3-2.7h-.3v10.4zM203.9 29c.9-.8 1.4-1.9 1.5-3.1h-4.2c-2 0-3 .7-3 2.1 0 1.3.8 2 2.5 2 1.2.1 2.3-.2 3.2-1zm-8.9-5.2c1.5-1.3 3.6-1.9 6.5-1.9h4v-.7c.1-.9-.3-1.8-.9-2.4-.7-.6-1.5-.9-2.4-.8-.8 0-1.6.2-2.3.8-.6.5-1 1.4-.9 2.2l-5.4-.9c.3-2 1.3-3.7 2.9-4.9 1.6-1.2 3.6-1.8 5.7-1.7 2.2 0 4.4.7 6.1 2 1.7 1.4 2.7 3.5 2.6 5.7v8.2h2.7l-1.5 4.9h-5.3l-1.2-2.5h-.3c-1.6 1.9-4 2.9-6.5 2.9-1.6.1-3.2-.5-4.3-1.6-1.1-1.1-1.7-2.7-1.7-4.3-.1-2 .7-3.8 2.2-5zm-5.6 3.5c-1.1 2.3-2.9 4.2-5.1 5.4-2.2 1.2-4.6 1.9-7.1 1.9-1.8 0-3.5-.3-5.1-.9-1.6-.6-3.1-1.5-4.4-2.7-1.4-1.3-2.5-2.9-3.2-4.6-.8-2-1.2-4.2-1.2-6.4s.4-4.4 1.2-6.4c.7-1.8 1.8-3.4 3.2-4.7 1.3-1.2 2.8-2.1 4.4-2.7 1.6-.6 3.4-.9 5.1-.9 2.3 0 4.5.5 6.6 1.6 2 1.1 3.8 2.6 5 4.6l-4.6 2.9c-1.4-2.6-4.1-4.2-7-4.2-2.3 0-4.4.9-6 2.6-1.8 2-2.7 4.6-2.5 7.2-.2 2.6.8 5.2 2.5 7.2 2.7 2.8 7 3.4 10.3 1.4 1.4-.9 2.4-2.1 3.1-3.6l4.8 2.3zM146.3 19c-.9.8-1.5 1.8-1.8 2.9h9.5c0-1.1-.6-2.2-1.4-2.9-.9-.7-2-1.1-3.1-1-1.2-.1-2.3.2-3.2 1zm-1.8 7c.2 1.2.8 2.2 1.7 3 1.3 1 2.9 1.3 4.4 1 1.5-.3 2.9-1.3 3.6-2.7l5.1 1.6c-.9 1.8-2.3 3.3-4 4.3-1.8 1-3.8 1.4-5.8 1.4-2.9.1-5.7-1-7.7-3s-3-4.7-2.9-7.5c-.2-2.9 1-5.8 3.1-7.8 2-1.9 4.7-2.9 7.5-2.8 2.6 0 5.2 1 7.1 2.8 2.1 2 3.2 4.8 3.1 7.7v2h-15.2zm-14.7-9.3c.5-.9 1.2-1.7 2.1-2.3 1-.5 2.1-.7 3.2-.6h2.4l-1.6 5.4h-1.4c-1.8 0-3.1.4-3.9 1.3-.9 1.2-1.3 2.7-1.1 4.2v9.6h-5.4V13.8h5.4v2.9h.3zm-17.1 11.5c1.1-1.1 1.7-2.6 1.6-4.2.1-1.6-.5-3.1-1.7-4.2-2.2-2-5.6-2-7.8 0-1.1 1.1-1.7 2.6-1.6 4.2-.1 1.6.5 3.1 1.6 4.2 2.3 2 5.7 2 7.9 0zm-11.6 3.6c-2.2-2-3.4-4.8-3.2-7.8-.1-2.1.5-4.1 1.6-5.9 1-1.6 2.4-2.8 4.1-3.6 1.6-.8 3.4-1.2 5.3-1.1 2.8 0 5.6 1 7.7 2.8 2.2 2 3.4 4.8 3.3 7.8.2 3-1 5.8-3.2 7.8-4.7 3.8-11.2 3.8-15.6 0zm-6.5-4.5c-1.1 2.3-2.9 4.2-5.1 5.4-2.2 1.2-4.6 1.9-7.1 1.9-1.8 0-3.5-.3-5.1-.9-1.6-.6-3.1-1.5-4.4-2.7-1.4-1.3-2.5-2.9-3.2-4.6-.8-2-1.2-4.2-1.2-6.4s.4-4.4 1.2-6.4c.7-1.8 1.8-3.4 3.2-4.7 1.3-1.2 2.8-2.1 4.4-2.7 1.6-.6 3.4-.9 5.1-.9 2.3 0 4.5.5 6.6 1.6 2 1.1 3.8 2.6 5 4.6l-4.6 2.9c-1.4-2.6-4.1-4.2-7-4.2-2.3 0-4.4.9-6 2.6-1.8 2-2.7 4.6-2.5 7.2-.2 2.6.8 5.2 2.5 7.2 2.7 2.8 7 3.4 10.3 1.4 1.4-.9 2.4-2.1 3.1-3.6l4.8 2.3z"/><path d="M40.6 23.6c0 2.9-2.4 5.3-5.3 5.3S30 26.5 30 23.6s2.4-5.3 5.3-5.3c2.9.1 5.3 2.4 5.3 5.3zM17.1 23.6c0 2.9-2.4 5.3-5.3 5.3s-5.3-2.4-5.3-5.3 2.4-5.3 5.3-5.3c2.9.1 5.3 2.4 5.3 5.3zM46.1 5.4l-2.2 6.5h-8.6c-5.4 0-10.1 3.7-11.4 8.9h-.7c-1.3-5.2-6-8.9-11.4-8.9H3.1L1 5.4h7.7c8.6-7 21-7 29.7 0h7.7zm-19.2 27l-3.4 9.5-3.4-9.5c1.3-1.3 2.4-2.9 3-4.7h.8c.2.6.5 1.3.8 1.9.7 1 1.4 1.9 2.2 2.8z"/></svg>